<svg width="702" height="144" viewBox="0 0 702 144" fill="none" xmlns="http://www.w3.org/2000/svg">
<path d="M1 140.637H343.388" stroke="#333333" stroke-width="2" stroke-linecap="round"/>
<path d="M124.729 132.149V140.99H122.482M124.729 132.149L74.5419 114.295C72.7941 111.89 67.8003 107.513 61.8078 109.245C56.5643 108.523 44.729 106.214 39.3358 102.751H31.096C28.8488 98.6627 23.0061 91.3516 17.6128 94.8148C10.8712 99.1437 14.6165 106.359 19.86 107.802C24.0548 108.956 29.0985 109.245 31.096 109.245L34.0917 112.131M124.729 132.149L122.482 134.314L103.755 130.889L76.7885 122.232C73.7922 123.386 64.0544 119.827 59.56 117.903L41.5823 117.181L40.0842 112.852M34.0917 112.131V137.383L28.8482 138.826M34.0917 112.131L40.0842 112.852M40.0842 112.852L37.837 138.826L34.0917 140.269" stroke="#333333" stroke-width="2" stroke-linecap="round"/>
<path d="M214.045 5.44702L221.31 4.00222L221.752 6.18829M214.045 5.44702L209.24 57.1734C207.607 59.2662 204.992 64.8381 207.593 70.383C208.031 75.6003 208.46 87.4877 206.675 93.2988L208.295 101.312C205.377 104.166 200.518 111.043 204.424 115.722C209.306 121.571 214.499 116.749 214.654 111.414C214.778 107.146 214.023 102.194 213.631 100.251L215.413 96.866M214.045 5.44702L216.265 7.27937L217.133 26.0512L215.32 53.6915C216.857 56.4168 215.847 66.4688 215.149 71.1542L215.413 96.866M215.413 96.866L214.5 106.657L199.434 123.074L208.313 139.756L203.518 139.968M215.413 96.866L226.885 114.033L220.754 131.735L222.17 136.653L225.996 138.974" stroke="#333333" stroke-width="2" stroke-linecap="round"/>
<path d="M102.372 135.208L104.59 138.136H101.264L96.8288 125.446L95.7201 116.661L92.9483 108.852L90.7308 102.507L89.0677 108.852L86.8503 116.661L85.1872 125.446L82.9697 138.136H77.9805L80.1979 135.208L81.3067 123.494V116.661L82.9697 108.852L85.1872 98.1142V89.3289L80.1979 80.5436L79.6436 69.806V54.6758L85.1872 73.2225L87.959 69.806C91.9504 63.5587 97.7528 67.203 100.155 69.806L104.59 57.1161L103.481 69.806L101.264 81.5197L95.7201 90.7931L98.4919 98.1142L100.155 108.852L101.264 116.661V123.494L102.372 135.208Z" stroke="#333333" stroke-width="2" stroke-linecap="round"/>
<path d="M126.885 66.0913L96.3203 59.6713L65.0362 62.5246V60.3846M126.885 66.0913L126.443 67.5179M126.885 66.0913L127.485 63.9513M126.443 67.5179L125.447 70.728L128.683 59.6713L127.485 63.9513M126.443 67.5179H128.683L129.762 64.6646L127.485 63.9513M65.7554 67.5179L65.4985 63.9513M65.4985 63.9513L65.0362 57.5312V60.3846M65.4985 63.9513H63.2383V60.3846H65.0362" stroke="#333333" stroke-width="2" stroke-linecap="round"/>
<path d="M294.295 99.1681L325.305 102.537L356.089 103.569L356.06 105.709M294.295 99.1681L294.757 97.7475M294.295 99.1681L293.666 101.3M294.757 97.7475L295.796 94.5513L292.409 105.563L293.666 101.3M294.757 97.7475L292.516 97.7173L291.399 100.556L293.666 101.3M355.438 98.5662L355.646 102.136M355.646 102.136L356.021 108.562L356.06 105.709M355.646 102.136L357.906 102.167L357.857 105.733L356.06 105.709" stroke="#333333" stroke-width="2" stroke-linecap="round"/>
<path d="M181.653 131.652H185.86V140.28H144.394V135.634V131.652H145.596M181.653 131.652C183.256 124.572 183.576 111.209 172.038 114.395C168.909 115.259 166.563 116.599 164.826 118.18M181.653 131.652H160.62M160.62 131.652H149.803M160.62 131.652C159.89 128.427 160.16 122.429 164.826 118.18M145.596 131.652L144.394 110.413L149.803 79.8822L141.99 77.8911V74.5725H147.399L143.192 63.9531H147.399L154.009 72.5814L155.211 77.8911L149.803 98.4662L151.005 114.395L149.803 131.652M145.596 131.652H149.803M164.826 118.18L174.442 128.333L176.846 125.678" stroke="#333333" stroke-width="2" stroke-linecap="round"/>
<path d="M176.194 100.783H184.651L185.86 89.3391C184.41 68.5866 175.187 61.8725 170.757 61.1095V48.1393C168.542 46.6134 163.266 44.4771 159.883 48.1393C156.5 51.8015 162.501 61.8725 165.924 66.4503L162.299 77.8947H155.654L158.675 82.4724H164.112H173.173L176.194 89.3391L161.091 90.865V119.094L158.675 120.62V126.724H165.924V97.7316H171.965V103.072L168.945 115.28L171.965 123.672H176.194V100.783Z" stroke="#333333" stroke-width="2" stroke-linecap="round"/>
<path d="M239.797 124.392V129.029M250.386 105.324H238.583C236.188 106.287 230.554 110.253 231.911 113.884C234.043 119.591 232.082 126.507 231.911 130.84C232.937 133.568 236.632 138.832 243.201 138.062C251.412 137.099 257.057 133.729 257.057 130.84C257.057 128.529 254.54 119.591 257.057 111.583C255.86 109.497 252.849 105.324 250.386 105.324ZM251.925 116.397C248.333 115.274 240.43 113.701 237.556 116.397C234.682 119.093 236.359 113.348 237.556 110.139H250.386L251.925 116.397ZM247.708 124.392C245.79 125.947 242.674 129.232 245.55 129.934C249.146 130.812 252.214 126.889 247.708 124.392Z" stroke="#333333" stroke-width="2" stroke-linecap="round"/>
<path d="M9.18855 128.281V131.607M16.0969 114.602H8.39639C6.83397 115.292 3.15875 118.137 4.04392 120.742C5.43489 124.836 4.15552 129.798 4.04392 132.906C4.71348 134.864 7.12397 138.64 11.4095 138.087C16.7664 137.396 20.4492 134.979 20.4492 132.906C20.4492 131.249 18.807 124.836 20.4492 119.091C19.6681 117.595 17.7041 114.602 16.0969 114.602ZM17.1012 122.545C14.7575 121.739 9.60153 120.611 7.72662 122.545C5.85171 124.479 6.94541 120.358 7.72662 118.055H16.0969L17.1012 122.545ZM14.3497 128.281C13.0985 129.396 11.0653 131.753 12.9421 132.257C15.2881 132.886 17.2899 130.072 14.3497 128.281Z" stroke="#333333" stroke-width="2" stroke-linecap="round"/>
<path d="M282.384 114.947L277.383 115.512M272.381 116.078L277.383 115.512M277.383 115.512L277.138 113.386M277.383 115.512L277.708 118.347L285.926 117.418L277.53 118.367M269.134 119.317L277.53 118.367M277.53 118.367L279.174 131.105L287.392 130.176L278.996 131.125M270.6 132.074L274.798 131.6L278.996 131.125M278.996 131.125L279.321 133.96L284.819 132.979L274.458 134.151L278.826 134.375L279.647 136.795" stroke="#333333" stroke-width="2" stroke-linecap="round"/>
<path d="M304.673 121.586L300.44 118.885M296.206 116.183L300.44 118.885M300.44 118.885L301.607 117.085M300.44 118.885L298.883 121.284L305.839 125.723L298.732 121.188M291.626 116.653L298.732 121.188M298.732 121.188L291.879 132.082L298.835 136.521L291.728 131.986M284.621 127.451L288.175 129.718L291.728 131.986M291.728 131.986L290.172 134.386L295.053 137.077L286.284 131.48L289.523 134.396L288.615 136.785" stroke="#333333" stroke-width="2" stroke-linecap="round"/>
<path d="M317.828 72.9651L320.371 67.4742C322.049 66.642 326.243 65.3023 329.695 69.0117C333.147 72.721 331.133 78.2285 329.695 79.774L339.403 90.3459L344.078 106.753H339.403L331.852 90.3459L327.537 106.753L329.695 120.306L334.01 134.216L339.403 138.496H329.695L322.503 108.179L319.267 120.306L317.828 138.496H311.356L313.873 132.789V120.306L319.267 108.179L316.39 90.3459L311.356 108.179H307.76L311.356 90.3459L319.267 79.774L317.828 72.9651Z" stroke="#333333" stroke-width="2" stroke-linecap="round"/>
<path d="M344 138.637H686.388" stroke="#333333" stroke-width="2" stroke-linecap="round"/>
<path d="M467.729 130.153V138.994H465.482M467.729 130.153L417.542 112.299C415.794 109.894 410.8 105.517 404.808 107.249C399.564 106.527 387.729 104.218 382.336 100.755H374.096C371.849 96.6666 366.006 89.3555 360.613 92.8187C353.871 97.1476 357.617 104.363 362.86 105.806C367.055 106.96 372.099 107.249 374.096 107.249L377.092 110.135M467.729 130.153L465.482 132.318L446.755 128.893L419.789 120.235C416.792 121.39 407.054 117.83 402.56 115.906L384.582 115.185L383.084 110.856M377.092 110.135V135.387L371.848 136.83M377.092 110.135L383.084 110.856M383.084 110.856L380.837 136.83L377.092 138.273" stroke="#333333" stroke-width="2" stroke-linecap="round"/>
<path d="M557.045 3.44702L564.31 2.00222L564.752 4.18829M557.045 3.44702L552.24 55.1734C550.607 57.2662 547.992 62.8381 550.593 68.383C551.031 73.6003 551.46 85.4877 549.675 91.2988L551.295 99.3122C548.377 102.166 543.518 109.043 547.424 113.722C552.306 119.571 557.499 114.749 557.654 109.414C557.778 105.146 557.023 100.194 556.631 98.251L558.413 94.866M557.045 3.44702L559.265 5.27937L560.133 24.0512L558.32 51.6915C559.857 54.4168 558.847 64.4688 558.149 69.1542L558.413 94.866M558.413 94.866L557.5 104.657L542.434 121.074L551.313 137.756L546.518 137.968M558.413 94.866L569.885 112.033L563.754 129.735L565.17 134.653L568.996 136.974" stroke="#333333" stroke-width="2" stroke-linecap="round"/>
<path d="M445.372 133.208L447.59 136.136H444.264L439.829 123.446L438.72 114.661L435.948 106.852L433.731 100.507L432.068 106.852L429.85 114.661L428.187 123.446L425.97 136.136H420.98L423.198 133.208L424.307 121.494V114.661L425.97 106.852L428.187 96.1142V87.3289L423.198 78.5436L422.644 67.806V52.6758L428.187 71.2225L430.959 67.806C434.95 61.5587 440.753 65.203 443.155 67.806L447.59 55.1161L446.481 67.806L444.264 79.5197L438.72 88.7931L441.492 96.1142L443.155 106.852L444.264 114.661V121.494L445.372 133.208Z" stroke="#333333" stroke-width="2" stroke-linecap="round"/>
<path d="M469.885 64.0913L439.32 57.6713L408.036 60.5246V58.3846M469.885 64.0913L469.443 65.5179M469.885 64.0913L470.485 61.9513M469.443 65.5179L468.447 68.728L471.683 57.6713L470.485 61.9513M469.443 65.5179H471.683L472.762 62.6646L470.485 61.9513M408.755 65.5179L408.499 61.9513M408.499 61.9513L408.036 55.5312V58.3846M408.499 61.9513H406.238V58.3846H408.036" stroke="#333333" stroke-width="2" stroke-linecap="round"/>
<path d="M637.295 97.1681L668.305 100.537L699.089 101.569L699.06 103.709M637.295 97.1681L637.757 95.7475M637.295 97.1681L636.666 99.2998M637.757 95.7475L638.796 92.5513L635.409 103.563L636.666 99.2998M637.757 95.7475L635.516 95.7173L634.399 98.5558L636.666 99.2998M698.438 96.5662L698.646 100.136M698.646 100.136L699.021 106.562L699.06 103.709M698.646 100.136L700.906 100.167L700.857 103.733L699.06 103.709" stroke="#333333" stroke-width="2" stroke-linecap="round"/>
<path d="M524.653 129.656H528.86V138.284H487.394V133.638V129.656H488.596M524.653 129.656C526.256 122.576 526.576 109.213 515.038 112.399C511.909 113.263 509.563 114.602 507.826 116.184M524.653 129.656H503.62M503.62 129.656H492.803M503.62 129.656C502.89 126.431 503.16 120.433 507.826 116.184M488.596 129.656L487.394 108.417L492.803 77.8861L484.99 75.895V72.5764H490.399L486.192 61.957H490.399L497.009 70.5853L498.211 75.895L492.803 96.4701L494.005 112.399L492.803 129.656M488.596 129.656H492.803M507.826 116.184L517.442 126.337L519.846 123.682" stroke="#333333" stroke-width="2" stroke-linecap="round"/>
<path d="M519.194 98.7835H527.651L528.86 87.3391C527.41 66.5866 518.187 59.8725 513.757 59.1095V46.1393C511.542 44.6134 506.266 42.4771 502.883 46.1393C499.5 49.8015 505.501 59.8725 508.924 64.4503L505.299 75.8947H498.654L501.675 80.4724H507.112H516.173L519.194 87.3391L504.091 88.865V117.094L501.675 118.62V124.724H508.924V95.7316H514.965V101.072L511.945 113.28L514.965 121.672H519.194V98.7835Z" stroke="#333333" stroke-width="2" stroke-linecap="round"/>
<path d="M582.797 122.392V127.029M593.386 103.324H581.583C579.188 104.287 573.554 108.253 574.911 111.884C577.043 117.591 575.082 124.507 574.911 128.84C575.937 131.568 579.632 136.832 586.201 136.062C594.412 135.099 600.057 131.729 600.057 128.84C600.057 126.529 597.54 117.591 600.057 109.583C598.86 107.497 595.849 103.324 593.386 103.324ZM594.925 114.397C591.333 113.274 583.43 111.701 580.556 114.397C577.682 117.093 579.359 111.348 580.556 108.139H593.386L594.925 114.397ZM590.708 122.392C588.79 123.947 585.674 127.232 588.55 127.934C592.146 128.812 595.214 124.889 590.708 122.392Z" stroke="#333333" stroke-width="2" stroke-linecap="round"/>
<path d="M352.189 126.284V129.611M359.097 112.605H351.396C349.834 113.296 346.159 116.141 347.044 118.746C348.435 122.84 347.156 127.802 347.044 130.91C347.713 132.867 350.124 136.644 354.409 136.091C359.766 135.4 363.449 132.983 363.449 130.91C363.449 129.252 361.807 122.84 363.449 117.095C362.668 115.599 360.704 112.605 359.097 112.605ZM360.101 120.549C357.758 119.743 352.602 118.615 350.727 120.549C348.852 122.483 349.945 118.362 350.727 116.059H359.097L360.101 120.549ZM357.35 126.284C356.099 127.4 354.065 129.757 355.942 130.261C358.288 130.89 360.29 128.076 357.35 126.284Z" stroke="#333333" stroke-width="2" stroke-linecap="round"/>
<path d="M625.384 112.951L620.383 113.516M615.381 114.082L620.383 113.516M620.383 113.516L620.138 111.39M620.383 113.516L620.708 116.351L628.926 115.422L620.53 116.371M612.134 117.321L620.53 116.371M620.53 116.371L622.174 129.109L630.392 128.18L621.996 129.129M613.6 130.078L617.798 129.603L621.996 129.129M621.996 129.129L622.321 131.964L627.819 130.983L617.458 132.155L621.826 132.379L622.647 134.799" stroke="#333333" stroke-width="2" stroke-linecap="round"/>
<path d="M647.673 119.59L643.44 116.889M639.206 114.187L643.44 116.889M643.44 116.889L644.607 115.089M643.44 116.889L641.883 119.288L648.839 123.727L641.732 119.192M634.626 114.657L641.732 119.192M641.732 119.192L634.879 130.086L641.835 134.525L634.728 129.99M627.621 125.455L631.175 127.722L634.728 129.99M634.728 129.99L633.172 132.389L638.053 135.081L629.284 129.484L632.523 132.4L631.615 134.789" stroke="#333333" stroke-width="2" stroke-linecap="round"/>
<path d="M660.828 70.9651L663.371 65.4742C665.049 64.642 669.243 63.3023 672.695 67.0117C676.147 70.721 674.133 76.2285 672.695 77.774L682.403 88.3459L687.078 104.753H682.403L674.852 88.3459L670.537 104.753L672.695 118.306L677.01 132.216L682.403 136.496H672.695L665.503 106.179L662.267 118.306L660.828 136.496H654.356L656.873 130.789V118.306L662.267 106.179L659.39 88.3459L654.356 106.179H650.76L654.356 88.3459L662.267 77.774L660.828 70.9651Z" stroke="#333333" stroke-width="2" stroke-linecap="round"/>
</svg>
