<svg width="52" height="35" viewBox="0 0 52 35" fill="none" xmlns="http://www.w3.org/2000/svg">
<path d="M23.5655 9.23749C24.6207 16.9183 26.0979 32.6092 23.5655 33.9259C21.5613 34.968 17.0751 24.8078 13.8379 16.3358C12.5285 12.9092 14.2134 9.09606 17.6416 7.7906C26.0166 4.60132 37.8544 0.802273 44.669 1.00801C48.4474 1.12208 43.3207 5.15209 35.1037 10.4867C28.5291 14.7551 33.5799 26.7607 40.0966 22.4044V22.4044V22.4044C40.8431 21.9053 41.5034 22.0059 41.5034 22.9038V27.0129M41.5034 30.963V27.0129M41.5034 27.0129L51 20.4293M41.5034 27.0129C44.0828 28.2198 48.8897 30.9628 47.4828 32.2798" stroke="white" stroke-linecap="round"/>
</svg>
